<svg preserveAspectRatio="xMidYMid meet" data-bbox="19.999 19.993 160.002 160.008" viewBox="19.999 19.993 160.002 160.008" height="200" width="200" xmlns="http://www.w3.org/2000/svg" data-type="color" role="presentation" aria-hidden="true" aria-labelledby="comp-lbhl6bek-svgtitle_comp-lbhl6bek"><defs><style>#comp-lbhl6bek svg [data-color="1"] {fill: #FFFFFF;}</style></defs><title id="comp-lbhl6bek-svgtitle_comp-lbhl6bek"></title>
    <g>
        <path d="M176.19 169.841a3.81 3.81 0 0 1-3.81-3.81V42.857H27.619v123.175a3.81 3.81 0 1 1-7.62 0V39.048a3.81 3.81 0 0 1 3.81-3.81H176.19a3.81 3.81 0 0 1 3.81 3.81v126.984a3.809 3.809 0 0 1-3.81 3.809z" fill="#ffffff" data-color="1"></path>
        <path d="M176.19 78.413H23.81a3.81 3.81 0 1 1 0-7.62h152.38a3.81 3.81 0 1 1 0 7.62z" fill="#ffffff" data-color="1"></path>
        <path d="M100 58.095a3.81 3.81 0 0 1-3.81-3.81V23.81a3.81 3.81 0 1 1 7.62 0v30.476a3.81 3.81 0 0 1-3.81 3.809z" fill="#ffffff" data-color="1"></path>
        <path d="M74.603 58.095a3.81 3.81 0 0 1-3.81-3.81V23.81a3.81 3.81 0 1 1 7.62 0v30.476a3.81 3.81 0 0 1-3.81 3.809z" fill="#ffffff" data-color="1"></path>
        <path d="M125.397 58.095a3.81 3.81 0 0 1-3.81-3.81V23.81a3.81 3.81 0 1 1 7.62 0v30.476a3.81 3.81 0 0 1-3.81 3.809z" fill="#ffffff" data-color="1"></path>
        <path d="M49.206 58.095a3.81 3.81 0 0 1-3.81-3.81V23.81a3.81 3.81 0 1 1 7.62 0v30.476a3.809 3.809 0 0 1-3.81 3.809z" fill="#ffffff" data-color="1"></path>
        <path d="M150.794 58.095a3.81 3.81 0 0 1-3.81-3.81V23.81a3.81 3.81 0 1 1 7.62 0v30.476a3.81 3.81 0 0 1-3.81 3.809z" fill="#ffffff" data-color="1"></path>
        <path d="M33.968 180C26.266 180 20 173.734 20 166.032a3.81 3.81 0 1 1 7.62 0 6.356 6.356 0 0 0 6.349 6.349 3.81 3.81 0 1 1-.001 7.619z" fill="#ffffff" data-color="1"></path>
        <path d="M166.032 180a3.81 3.81 0 1 1 0-7.62 6.356 6.356 0 0 0 6.349-6.349 3.81 3.81 0 1 1 7.62 0C180 173.734 173.734 180 166.032 180z" fill="#ffffff" data-color="1"></path>
        <path d="M166.032 180H33.968a3.81 3.81 0 1 1 0-7.62h132.064a3.81 3.81 0 1 1 0 7.62z" fill="#ffffff" data-color="1"></path>
        <path d="M49.206 119.048a3.81 3.81 0 0 1-3.81-3.81V94.921a3.81 3.81 0 1 1 7.62 0v20.317a3.81 3.81 0 0 1-3.81 3.81z" fill="#ffffff" data-color="1"></path>
        <path d="M69.524 119.048a3.81 3.81 0 0 1-3.81-3.81V94.921a3.81 3.81 0 1 1 7.62 0v20.317a3.81 3.81 0 0 1-3.81 3.81z" fill="#ffffff" data-color="1"></path>
        <path d="M69.524 98.73H49.206a3.81 3.81 0 1 1 0-7.62h20.317a3.81 3.81 0 0 1 .001 7.62z" fill="#ffffff" data-color="1"></path>
        <path d="M69.524 119.048H49.206a3.81 3.81 0 1 1 0-7.62h20.317a3.81 3.81 0 0 1 .001 7.62z" fill="#ffffff" data-color="1"></path>
        <path d="M100.051 108.889c-2.104 0-3.86-1.705-3.86-3.81 0-2.104 1.655-3.81 3.759-3.81h.101a3.81 3.81 0 1 1 0 7.62z" fill="#ffffff" data-color="1"></path>
        <path d="M140.686 108.889c-2.104 0-3.86-1.705-3.86-3.81 0-2.104 1.655-3.81 3.759-3.81h.101a3.81 3.81 0 1 1 0 7.62z" fill="#ffffff" data-color="1"></path>
        <path d="M100.051 149.524c-2.104 0-3.86-1.705-3.86-3.81 0-2.104 1.655-3.81 3.759-3.81h.101a3.81 3.81 0 1 1 0 7.62z" fill="#ffffff" data-color="1"></path>
        <path d="M59.416 149.524c-2.104 0-3.86-1.705-3.86-3.81 0-2.104 1.655-3.81 3.759-3.81h.101a3.81 3.81 0 1 1 0 7.62z" fill="#ffffff" data-color="1"></path>
        <path d="M140.686 149.524c-2.104 0-3.86-1.705-3.86-3.81 0-2.104 1.655-3.81 3.759-3.81h.101a3.81 3.81 0 1 1 0 7.62z" fill="#ffffff" data-color="1"></path>
    </g>
</svg>